<?xml version="1.0" encoding="UTF-8" standalone="no"?>
<!-- Created with Inkscape (http://www.inkscape.org/) -->

<svg
   width="600"
   height="185"
   viewBox="0 0 158.75 48.947918"
   version="1.1"
   id="svg1"
   sodipodi:docname="logo.svg"
   xmlns:inkscape="http://www.inkscape.org/namespaces/inkscape"
   xmlns:sodipodi="http://sodipodi.sourceforge.net/DTD/sodipodi-0.dtd"
   xmlns="http://www.w3.org/2000/svg"
   xmlns:svg="http://www.w3.org/2000/svg">
  <sodipodi:namedview
     id="namedview1"
     pagecolor="#ffffff"
     bordercolor="#000000"
     borderopacity="0.25"
     inkscape:showpageshadow="2"
     inkscape:pageopacity="0.0"
     inkscape:pagecheckerboard="0"
     inkscape:deskcolor="#d1d1d1"
     inkscape:document-units="mm"
     inkscape:zoom="0.86"
     inkscape:cx="1133.7209"
     inkscape:cy="349.4186"
     inkscape:window-width="2560"
     inkscape:window-height="1369"
     inkscape:window-x="-8"
     inkscape:window-y="-8"
     inkscape:window-maximized="1"
     inkscape:current-layer="layer1" />
  <defs
     id="defs1" />
  <g
     inkscape:label="Ebene 1"
     inkscape:groupmode="layer"
     id="layer1">
    <g
       id="g2003"
       transform="matrix(2.0563063,0,0,2.0465173,-10.072398,-6.1395517)"
       style="display:inline">
      <path
         d="m 24.486471,5.7467751 q -0.01688,0.072347 -0.02653,0.1229899 -0.0096,0.050643 -0.01688,0.1254015 -0.0072,0.072347 -0.0072,0.1278131 0,0.074759 0.02412,0.1181668 0.02411,0.040997 0.07235,0.060289 0.04823,0.019293 0.166398,0.028939 l -0.02653,0.1181668 h -0.991154 l 0.02653,-0.1181668 q 0.09164,-0.014469 0.137459,-0.04582 0.04582,-0.033762 0.07717,-0.09164 0.03135,-0.057878 0.05788,-0.1398709 0.02653,-0.084405 0.07958,-0.32315 L 24.46959,3.8729872 q 0.05305,-0.2411567 0.05305,-0.3810276 0,-0.1181668 -0.05547,-0.1639866 -0.05547,-0.04582 -0.180867,-0.053055 l 0.02653,-0.1181668 h 2.175234 l -0.166398,0.7403512 h -0.231511 q -0.0096,-0.1712213 -0.02653,-0.267684 -0.01688,-0.098874 -0.04341,-0.1471056 -0.02412,-0.048231 -0.05547,-0.069936 -0.03135,-0.024116 -0.07958,-0.033762 -0.04582,-0.00965 -0.132636,-0.00965 h -0.742763 l -0.286977,1.3118927 h 0.450963 q 0.106109,0 0.176045,-0.028939 0.06994,-0.028939 0.130225,-0.1036974 0.06029,-0.07717 0.149517,-0.2604493 h 0.219452 l -0.233922,1.0176814 h -0.212218 q 0,-0.1495171 -0.0072,-0.233922 -0.0048,-0.084405 -0.02894,-0.1181668 -0.0217,-0.033762 -0.06511,-0.04582 -0.041,-0.014469 -0.151929,-0.014469 h -0.472667 z m 2.606904,-1.6253965 h 0.144694 l -0.168809,0.5932456 0.02894,0.00965 q 0.229099,-0.3159153 0.44614,-0.4678441 0.219453,-0.1519287 0.450963,-0.1519287 0.176045,0 0.294212,0.026527 L 28.173757,4.671216 h -0.248391 q -0.01929,-0.1254015 -0.06029,-0.1905138 -0.041,-0.065112 -0.127813,-0.065112 -0.09405,0 -0.217041,0.096463 -0.12299,0.096463 -0.250803,0.2652724 -0.127813,0.1688097 -0.192926,0.3110922 -0.0627,0.1422824 -0.09646,0.3159153 L 26.76058,6.4485418 h -0.417201 l 0.366558,-1.6471006 q 0.05064,-0.2266873 0.05064,-0.3448541 0,-0.067524 -0.0217,-0.1036974 -0.0217,-0.038585 -0.06994,-0.055466 -0.04823,-0.019293 -0.163986,-0.026527 l 0.02653,-0.127813 z m 2.966228,1.8472607 q -0.178456,0.1953369 -0.342443,0.3086806 -0.163986,0.1133436 -0.327973,0.161575 -0.163986,0.048231 -0.361735,0.048231 -0.190514,0 -0.327973,-0.060289 Q 28.56202,6.3641359 28.47038,6.2580271 28.38115,6.1495066 28.337744,6.002401 q -0.04341,-0.1495172 -0.04341,-0.32315 0,-0.2580377 0.09164,-0.552249 0.09405,-0.2966227 0.282154,-0.5305448 0.188102,-0.2363336 0.450963,-0.3641467 0.262861,-0.1302246 0.559483,-0.1302246 0.2918,0 0.436494,0.1181668 0.147106,0.1181668 0.147106,0.3689698 0,0.4099665 -0.385851,0.6149497 -0.383439,0.2049832 -1.140671,0.2049832 -0.02894,0.1446941 -0.02894,0.3135038 0,0.2532146 0.09887,0.3689698 0.09887,0.1133437 0.32315,0.1133437 0.221864,0 0.402732,-0.096463 0.180867,-0.096463 0.378616,-0.2966228 z M 28.776649,5.2041724 q 0.221864,-0.00241 0.388263,-0.024116 0.168809,-0.024116 0.289388,-0.062701 0.120578,-0.040997 0.20016,-0.096463 0.07958,-0.055466 0.125401,-0.1205784 0.04823,-0.067524 0.06511,-0.1398709 0.01929,-0.074759 0.01929,-0.1543403 0,-0.1471056 -0.06994,-0.2290989 -0.06752,-0.084405 -0.202572,-0.084405 -0.16881,0 -0.332796,0.12299 -0.161575,0.1205783 -0.286977,0.3279731 -0.12299,0.2049833 -0.195337,0.4606094 z m 3.540181,0.7644669 q -0.178456,0.1953369 -0.342443,0.3086806 -0.163986,0.1133436 -0.327973,0.161575 -0.163986,0.048231 -0.361735,0.048231 -0.190514,0 -0.327973,-0.060289 -0.137459,-0.062701 -0.229099,-0.1688098 -0.08923,-0.1085205 -0.132636,-0.2556261 -0.04341,-0.1495172 -0.04341,-0.32315 0,-0.2580377 0.09164,-0.552249 0.09405,-0.2966227 0.282154,-0.5305448 0.188102,-0.2363336 0.450963,-0.3641467 0.262861,-0.1302246 0.559483,-0.1302246 0.2918,0 0.436494,0.1181668 0.147106,0.1181668 0.147106,0.3689698 0,0.4099665 -0.385851,0.6149497 -0.383439,0.2049832 -1.140672,0.2049832 -0.02894,0.1446941 -0.02894,0.3135038 0,0.2532146 0.09887,0.3689698 0.09887,0.1133437 0.32315,0.1133437 0.221864,0 0.402732,-0.096463 0.180867,-0.096463 0.378616,-0.2966228 z M 31.033876,5.2041724 q 0.221864,-0.00241 0.388262,-0.024116 0.16881,-0.024116 0.289389,-0.062701 0.120578,-0.040997 0.20016,-0.096463 0.07958,-0.055466 0.125401,-0.1205784 0.04823,-0.067524 0.06511,-0.1398709 0.01929,-0.074759 0.01929,-0.1543403 0,-0.1471056 -0.06994,-0.2290989 -0.06752,-0.084405 -0.202572,-0.084405 -0.16881,0 -0.332796,0.12299 -0.161575,0.1205783 -0.286977,0.3279731 -0.12299,0.2049833 -0.195337,0.4606094 z m 2.758833,-2.2041726 h 0.142282 l -0.627007,2.8456495 q -0.02653,0.1157553 -0.03376,0.1760444 -0.0072,0.057878 -0.0072,0.098874 0,0.072347 0.02412,0.1133437 0.02412,0.040997 0.07476,0.062701 0.05064,0.021704 0.166398,0.033762 l -0.01929,0.1181668 h -0.752409 l 0.622184,-2.7684794 q 0.02412,-0.1061089 0.03376,-0.1591634 0.0096,-0.053055 0.01447,-0.1012859 0.0048,-0.048231 0.0048,-0.084405 0,-0.072347 -0.02653,-0.1085205 -0.02653,-0.038585 -0.07717,-0.055466 -0.04823,-0.016881 -0.176044,-0.024116 l 0.02894,-0.1254015 z m 2.110122,1.2612498 0.221864,-0.1591635 0.15434,0.038585 -0.36897,1.6374542 q -0.03376,0.1446941 -0.04582,0.2242758 -0.01206,0.07717 -0.01206,0.1278131 0,0.098874 0.05547,0.144694 0.05547,0.043408 0.212218,0.055466 l -0.0217,0.1181668 h -0.689709 l 0.151929,-0.6053034 -0.03135,-0.00965 q -0.231511,0.3376194 -0.438906,0.4943713 -0.207394,0.1567519 -0.438905,0.1567519 -0.265272,0 -0.412378,-0.2001601 -0.144694,-0.2001601 -0.144694,-0.5618952 0,-0.2315105 0.05306,-0.463021 0.05305,-0.233922 0.159163,-0.4413168 0.108521,-0.2098063 0.258038,-0.3689698 0.149517,-0.1591634 0.344854,-0.2532146 0.197748,-0.094051 0.429259,-0.094051 0.149517,0 0.284565,0.036173 0.135048,0.033762 0.279742,0.12299 z m -0.212218,0.718647 q 0.0217,-0.098874 0.02894,-0.1712212 0.0072,-0.072347 0.0072,-0.1567519 0,-0.1881023 -0.07958,-0.2725071 -0.07958,-0.086817 -0.265272,-0.086817 -0.101286,0 -0.192925,0.033762 -0.09164,0.03135 -0.185691,0.1085205 -0.09405,0.074759 -0.180868,0.1977485 -0.0844,0.12299 -0.15434,0.2990344 -0.06993,0.1760444 -0.10852,0.3786161 -0.03858,0.2001601 -0.03858,0.3906739 0,0.250803 0.06752,0.3762045 0.06994,0.1229899 0.231511,0.1229899 0.07476,0 0.15434,-0.033762 0.08199,-0.033762 0.180868,-0.12299 0.09887,-0.09164 0.224276,-0.2676839 0.113343,-0.161575 0.178455,-0.3183269 0.06752,-0.1591635 0.110933,-0.373793 z m 3.072337,1.4686446 h -0.759644 l 0.306269,-1.2250763 q 0.02894,-0.1181668 0.05547,-0.2604492 0.02894,-0.1422825 0.02894,-0.2556262 0,-0.1712213 -0.06029,-0.2459799 -0.05788,-0.074758 -0.183279,-0.074758 -0.101286,0 -0.219453,0.079582 -0.115755,0.07717 -0.243568,0.233922 -0.127813,0.1543403 -0.217041,0.3159153 -0.08682,0.1591635 -0.135048,0.3882624 L 37.11585,6.4485412 h -0.417202 l 0.366559,-1.6471006 q 0.01206,-0.055466 0.03135,-0.1639865 0.0217,-0.1085206 0.0217,-0.1808676 0,-0.067524 -0.0217,-0.1036974 -0.01929,-0.038585 -0.06993,-0.055466 -0.04823,-0.019293 -0.166399,-0.026527 l 0.02894,-0.127813 0.547426,-0.021704 h 0.137459 l -0.161575,0.6270076 0.02894,0.00965 q 0.236334,-0.3327963 0.455786,-0.4919597 0.219453,-0.161575 0.438906,-0.161575 0.233922,0 0.3545,0.1302246 0.120578,0.1278131 0.120578,0.3810277 0,0.086816 -0.01688,0.1905138 -0.01447,0.1012858 -0.03376,0.1808675 l -0.202571,0.858518 q -0.041,0.1736329 -0.041,0.2749187 0,0.072347 0.02412,0.1133437 0.02412,0.040997 0.07476,0.062701 0.05064,0.021704 0.166399,0.033762 z m 2.141472,-1.7266823 q -0.0048,-0.1832791 -0.03135,-0.2652724 -0.02412,-0.081993 -0.08199,-0.1229899 -0.05547,-0.040997 -0.159163,-0.040997 -0.243569,0 -0.438905,0.195337 -0.192926,0.1929254 -0.315916,0.5498374 -0.12299,0.3545004 -0.12299,0.6824735 0,0.1012858 0.01688,0.1905138 0.01929,0.089228 0.0627,0.1543404 0.04582,0.065112 0.118167,0.1036973 0.07476,0.036174 0.188102,0.036174 0.219453,0 0.378616,-0.081993 0.161575,-0.084405 0.340031,-0.2628609 l 0.147106,0.1471056 q -0.226688,0.250803 -0.458198,0.3665583 -0.229099,0.1157552 -0.494371,0.1157552 -0.349678,0 -0.530545,-0.2073948 -0.180868,-0.2073948 -0.180868,-0.6028918 0,-0.2580377 0.09646,-0.5667184 0.09646,-0.3086806 0.282153,-0.5426026 0.185691,-0.2339221 0.434082,-0.3496773 0.248392,-0.1157552 0.530545,-0.1157552 0.192926,0 0.335208,0.021704 0.144694,0.021704 0.255626,0.050643 l -0.118167,0.5450142 z m 2.305458,1.2467804 q -0.178456,0.1953369 -0.342442,0.3086806 -0.163987,0.1133436 -0.327974,0.161575 -0.163986,0.048231 -0.361735,0.048231 -0.190513,0 -0.327973,-0.060289 -0.137459,-0.062701 -0.229099,-0.1688098 -0.08923,-0.1085205 -0.132636,-0.2556261 -0.04341,-0.1495172 -0.04341,-0.32315 0,-0.2580377 0.09164,-0.552249 0.09405,-0.2966227 0.282154,-0.5305448 0.188102,-0.2363336 0.450963,-0.3641467 0.262861,-0.1302246 0.559484,-0.1302246 0.291799,0 0.436493,0.1181668 0.147106,0.1181668 0.147106,0.3689698 0,0.4099665 -0.385851,0.6149497 -0.383439,0.2049832 -1.140671,0.2049832 -0.02894,0.1446941 -0.02894,0.3135038 0,0.2532146 0.09887,0.3689698 0.09887,0.1133437 0.32315,0.1133437 0.221864,0 0.402732,-0.096463 0.180867,-0.096463 0.378616,-0.2966228 z M 41.926926,5.2041724 q 0.221865,-0.00241 0.388263,-0.024116 0.168809,-0.024116 0.289388,-0.062701 0.120578,-0.040997 0.20016,-0.096463 0.07958,-0.055466 0.125401,-0.1205784 0.04823,-0.067524 0.06511,-0.1398709 0.01929,-0.074759 0.01929,-0.1543403 0,-0.1471056 -0.06994,-0.2290989 -0.06752,-0.084405 -0.202572,-0.084405 -0.16881,0 -0.332796,0.12299 -0.161575,0.1205783 -0.286977,0.3279731 -0.12299,0.2049833 -0.195337,0.4606094 z m 3.571531,0.5426027 q -0.03135,0.1422824 -0.041,0.2266873 -0.0096,0.081993 -0.0096,0.1495172 0,0.1085205 0.05305,0.1543403 0.05547,0.043408 0.183279,0.053055 l -0.02653,0.1181668 h -0.964627 l 0.02653,-0.1181668 q 0.09164,-0.014469 0.13746,-0.04582 0.04582,-0.033762 0.07717,-0.09164 0.03135,-0.057878 0.05788,-0.1398709 0.02653,-0.084405 0.07958,-0.32315 l 0.409967,-1.8569069 q 0.02412,-0.1109321 0.03859,-0.2122179 0.01447,-0.1036974 0.01447,-0.1760444 0,-0.1133437 -0.05788,-0.1567519 -0.05788,-0.04582 -0.178456,-0.053055 l 0.02653,-0.1181668 h 0.964627 l -0.02653,0.1181668 q -0.09164,0.019292 -0.132636,0.043408 -0.03859,0.024116 -0.07235,0.072347 -0.03135,0.048231 -0.06511,0.1519288 -0.03135,0.1012858 -0.08199,0.3327963 z m 2.392275,0.7017661 h -1.015269 l 0.02653,-0.1181668 q 0.09405,-0.012058 0.139871,-0.036174 0.04582,-0.026527 0.07958,-0.07717 0.03617,-0.050643 0.07235,-0.1567519 0.03617,-0.1085205 0.0844,-0.3303847 L 47.79427,3.3689696 h -0.306269 q -0.149517,0 -0.238745,0.043408 -0.08923,0.043408 -0.178456,0.1615751 -0.08923,0.1181668 -0.217041,0.395497 h -0.231511 l 0.180868,-0.8126982 h 2.517676 L 49.13269,4.0056234 h -0.231511 q 0,-0.233922 -0.01206,-0.3496773 -0.01206,-0.1181668 -0.04582,-0.1784559 -0.03376,-0.062701 -0.08441,-0.084405 -0.04823,-0.024116 -0.173633,-0.024116 h -0.356912 l -0.52331,2.3778055 q -0.0217,0.094051 -0.03135,0.1495171 -0.0072,0.055466 -0.01447,0.1181668 -0.0048,0.060289 -0.0048,0.1085206 0,0.074759 0.02412,0.1181668 0.02412,0.040997 0.07235,0.060289 0.04823,0.019293 0.166398,0.028939 z m 2.587611,-0.7499975 q 0,0.2917997 0.135048,0.4364937 0.135048,0.1422825 0.422024,0.1422825 0.221864,0 0.381028,-0.081993 0.159163,-0.081993 0.241157,-0.2315105 0.08199,-0.1519287 0.08199,-0.3593235 0,-0.1471056 -0.05306,-0.2580377 Q 51.635895,5.2331112 51.529787,5.1318254 51.426089,5.028128 51.228341,4.8954918 51.049885,4.7749134 50.931718,4.6591582 50.813551,4.5409914 50.743616,4.3962973 q -0.06994,-0.144694 -0.06994,-0.32315 0,-0.2845649 0.137459,-0.501606 0.13746,-0.2170411 0.388263,-0.3352079 0.250803,-0.1181668 0.578776,-0.1181668 0.221864,0 0.409966,0.03135 0.190514,0.028939 0.419613,0.1012858 l -0.135048,0.6197728 h -0.23151 q -0.0096,-0.2049832 -0.0627,-0.3207384 -0.05305,-0.1181668 -0.151929,-0.1688097 -0.09887,-0.050643 -0.26286,-0.050643 -0.200161,0 -0.352089,0.081993 -0.151929,0.081993 -0.231511,0.2242758 -0.07958,0.1398709 -0.07958,0.3135038 0,0.1254015 0.04341,0.2242757 0.04341,0.098874 0.137459,0.195337 0.09646,0.094051 0.279742,0.2194526 0.236334,0.1639866 0.359323,0.2942112 0.125402,0.1278131 0.18328,0.2725072 0.06029,0.144694 0.06029,0.3352078 0,0.2917997 -0.142283,0.5208986 -0.139871,0.2266873 -0.397908,0.3520888 -0.255626,0.1229899 -0.5836,0.1229899 -0.224275,0 -0.47749,-0.033762 -0.250803,-0.033762 -0.460609,-0.09164 l 0.144694,-0.663181 z m 3.957382,0.2700956 q -0.178455,0.1953369 -0.342442,0.3086806 -0.163987,0.1133436 -0.327973,0.161575 -0.163987,0.048231 -0.361735,0.048231 -0.190514,0 -0.327974,-0.060289 -0.137459,-0.062701 -0.229098,-0.1688098 -0.08923,-0.1085205 -0.132637,-0.2556261 -0.04341,-0.1495172 -0.04341,-0.32315 0,-0.2580377 0.09164,-0.552249 0.09405,-0.2966227 0.282153,-0.5305448 0.188102,-0.2363336 0.450963,-0.3641467 0.262861,-0.1302246 0.559484,-0.1302246 0.2918,0 0.436494,0.1181668 0.147105,0.1181668 0.147105,0.3689698 0,0.4099665 -0.385851,0.6149497 -0.383439,0.2049832 -1.140671,0.2049832 -0.02894,0.1446941 -0.02894,0.3135038 0,0.2532146 0.09887,0.3689698 0.09887,0.1133437 0.32315,0.1133437 0.221865,0 0.402732,-0.096463 0.180868,-0.096463 0.378616,-0.2966228 z M 53.152772,5.2041724 q 0.221864,-0.00241 0.388262,-0.024116 0.16881,-0.024116 0.289388,-0.062701 0.120578,-0.040997 0.20016,-0.096463 0.07958,-0.055466 0.125402,-0.1205784 0.04823,-0.067524 0.06511,-0.1398709 0.01929,-0.074759 0.01929,-0.1543403 0,-0.1471056 -0.06994,-0.2290989 -0.06752,-0.084405 -0.202572,-0.084405 -0.168809,0 -0.332796,0.12299 Q 53.473501,4.5361672 53.3481,4.743562 53.22511,4.9485453 53.152763,5.2041714 Z M 55.68974,4.1213786 h 0.144694 l -0.168809,0.5932456 0.02894,0.00965 q 0.229098,-0.3159153 0.44614,-0.4678441 0.219452,-0.1519287 0.450963,-0.1519287 0.176044,0 0.294211,0.026527 L 56.770123,4.671216 h -0.248392 q -0.01929,-0.1254015 -0.06029,-0.1905138 -0.041,-0.065112 -0.127813,-0.065112 -0.09405,0 -0.217041,0.096463 -0.12299,0.096463 -0.250803,0.2652724 -0.127813,0.1688097 -0.192926,0.3110922 -0.0627,0.1422824 -0.09646,0.3159153 l -0.219453,1.0442087 h -0.417201 l 0.366558,-1.6471006 q 0.05064,-0.2266873 0.05064,-0.3448541 0,-0.067524 -0.0217,-0.1036974 -0.0217,-0.038585 -0.06994,-0.055466 -0.04823,-0.019293 -0.163987,-0.026527 l 0.02653,-0.127813 z m 3.376196,0.021704 0.06511,0.1205783 q -0.08923,0.2146295 -0.137459,0.3183269 -0.04582,0.1036974 -0.127813,0.2604493 -0.07958,0.1543403 -0.180868,0.3255616 -0.09887,0.1712213 -0.226687,0.3665582 -0.127813,0.195337 -0.2918,0.429259 Q 58.004844,6.197738 57.785392,6.487126 H 57.483948 L 57.259672,4.6663929 q -0.0217,-0.1760444 -0.04823,-0.250803 -0.02412,-0.07717 -0.07235,-0.1109321 -0.04823,-0.036174 -0.151928,-0.043408 l 0.02653,-0.1181668 h 0.619773 l 0.183279,1.917196 q 0.414789,-0.5715415 0.61495,-0.9622154 0.20016,-0.3906739 0.20016,-0.6342422 0,-0.1133437 -0.04823,-0.1543403 -0.04823,-0.040997 -0.163986,-0.048231 L 58.44376,4.1430833 Z M 60.435708,3.1977483 60.324776,3.6655924 H 59.897928 L 60.00886,3.1977483 Z m -0.595658,2.647901 q -0.02653,0.12299 -0.03376,0.1808676 -0.0072,0.055466 -0.0072,0.094051 0,0.072347 0.02412,0.1133437 0.02412,0.040997 0.07476,0.062701 0.05064,0.021704 0.166398,0.033762 l -0.0217,0.1181668 H 59.295082 L 59.659229,4.823145 q 0.03135,-0.139871 0.04341,-0.2218642 0.01206,-0.084405 0.01206,-0.139871 0,-0.069935 -0.0217,-0.1085205 -0.01929,-0.038585 -0.06752,-0.057878 -0.04823,-0.019293 -0.166398,-0.024116 l 0.02653,-0.127813 0.588422,-0.021704 h 0.142283 z m 2.356099,-1.1237904 q -0.0048,-0.1832791 -0.03135,-0.2652724 -0.02412,-0.081993 -0.08199,-0.1229899 -0.05547,-0.040997 -0.159163,-0.040997 -0.243568,0 -0.438905,0.195337 -0.192926,0.1929254 -0.315916,0.5498374 -0.12299,0.3545004 -0.12299,0.6824735 0,0.1012858 0.01688,0.1905138 0.01929,0.089228 0.0627,0.1543404 0.04582,0.065112 0.118167,0.1036973 0.07476,0.036174 0.188102,0.036174 0.219453,0 0.378616,-0.081993 0.161575,-0.084405 0.340031,-0.2628609 l 0.147106,0.1471056 q -0.226688,0.250803 -0.458198,0.3665583 -0.229099,0.1157552 -0.494371,0.1157552 -0.349678,0 -0.530545,-0.2073948 -0.180868,-0.2073948 -0.180868,-0.6028918 0,-0.2580377 0.09646,-0.5667184 0.09646,-0.3086806 0.282153,-0.5426026 0.185691,-0.2339221 0.434082,-0.3496773 0.248392,-0.1157552 0.530545,-0.1157552 0.192926,0 0.335208,0.021704 0.144694,0.021704 0.255626,0.050643 l -0.118166,0.5450142 z m 2.305458,1.2467804 q -0.178456,0.1953369 -0.342442,0.3086806 -0.163987,0.1133436 -0.327974,0.161575 -0.163986,0.048231 -0.361735,0.048231 -0.190513,0 -0.327973,-0.060289 -0.137459,-0.062701 -0.229099,-0.1688098 -0.08923,-0.1085205 -0.132636,-0.2556261 -0.04341,-0.1495172 -0.04341,-0.32315 0,-0.2580377 0.09164,-0.552249 0.09405,-0.2966227 0.282154,-0.5305448 0.188102,-0.2363336 0.450963,-0.3641467 0.262861,-0.1302246 0.559484,-0.1302246 0.291799,0 0.436493,0.1181668 0.147106,0.1181668 0.147106,0.3689698 0,0.4099665 -0.385851,0.6149497 -0.383439,0.2049832 -1.140671,0.2049832 -0.02894,0.1446941 -0.02894,0.3135038 0,0.2532146 0.09887,0.3689698 0.09887,0.1133437 0.32315,0.1133437 0.221864,0 0.402732,-0.096463 0.180868,-0.096463 0.378616,-0.2966228 z M 63.218653,5.2041724 q 0.221865,-0.00241 0.388263,-0.024116 0.168809,-0.024116 0.289388,-0.062701 0.120578,-0.040997 0.20016,-0.096463 0.07958,-0.055466 0.125401,-0.1205784 0.04823,-0.067524 0.06511,-0.1398709 0.01929,-0.074759 0.01929,-0.1543403 0,-0.1471056 -0.06994,-0.2290989 -0.06752,-0.084405 -0.202572,-0.084405 -0.16881,0 -0.332796,0.12299 Q 63.539392,4.5361682 63.41399,4.743563 63.291,4.9485463 63.218653,5.2041724 Z M 66.358516,4.704978 q -0.02653,-0.2170411 -0.125401,-0.3135038 -0.09646,-0.098874 -0.301446,-0.098874 -0.113344,0 -0.204983,0.043408 -0.09164,0.040997 -0.144694,0.12299 -0.05306,0.079582 -0.05306,0.1881022 0,0.089228 0.03617,0.1639866 0.03617,0.072347 0.120578,0.1519288 0.08682,0.079582 0.241157,0.1832791 0.233922,0.1567519 0.327973,0.3038575 0.09405,0.1471056 0.09405,0.340031 0,0.2266873 -0.10852,0.3858508 -0.108521,0.1567518 -0.296623,0.233922 -0.188102,0.07717 -0.424436,0.07717 -0.212218,0 -0.397909,-0.03135 -0.183279,-0.03135 -0.356912,-0.079582 l 0.113344,-0.5208985 h 0.188102 q 0.01688,0.2218642 0.125402,0.3327963 0.110932,0.1085205 0.320738,0.1085205 0.21463,0 0.335208,-0.1061089 0.120578,-0.1085206 0.120578,-0.284565 0,-0.1036974 -0.03617,-0.1856907 -0.03617,-0.081993 -0.113344,-0.1567519 -0.07717,-0.074759 -0.219452,-0.1712212 -0.151929,-0.1036974 -0.24598,-0.195337 -0.09405,-0.09164 -0.147106,-0.2001601 -0.05064,-0.1109321 -0.05064,-0.2435683 0,-0.2001601 0.09887,-0.3472657 0.09887,-0.1471056 0.279741,-0.2242758 0.183279,-0.07717 0.426848,-0.07717 0.397908,0 0.701766,0.1036974 L 66.551442,4.704978 Z"
         id="text1"
         style="font-style:italic;font-size:4.93889px;font-family:Cambria;-inkscape-font-specification:'Cambria, Italic';fill:#242f40;stroke-width:0.264583"
         aria-label="Freelance IT Services " />
      <path
         style="color:#000000;display:inline;fill:#242f40;fill-opacity:1;-inkscape-stroke:none"
         d="M 8.8085673,4.7421877 8.7028399,5.3417971 H 18.702844 l 0.105728,-0.5996094 z"
         id="path2002" />
      <path
         style="color:#000000;display:inline;fill:#242f40;fill-opacity:1;-inkscape-stroke:none"
         d="M 5.0040239,26.318056 4.8982965,26.917665 H 78.191291 l 0.106199,-0.599609 z"
         id="path2002-10"
         sodipodi:nodetypes="ccccc" />
      <path
         style="color:#000000;display:inline;fill:#242f40;fill-opacity:1;-inkscape-stroke:none"
         d="M 72.099826,4.7420002 71.994099,5.3416096 H 81.994101 L 82.099829,4.7420002 Z"
         id="path2002-1" />
      <path
         fill="#9e001e"
         stroke="none"
         d="M 23.113501,11.941722 21.505128,10 h -1.941714 l -1.691707,9.716945 H 15.921659 L 17.271692,11.941722 15.663319,10 h -1.950047 l -1.691708,9.716945 H 10.071516 L 11.421549,11.941722 9.8131768,10 H 7.8631292 L 6.1714213,19.716945 7.7797938,21.667 H 21.421793 l 1.691708,-9.725278 m 5.850143,0 L 27.355271,10 h -1.950047 l -1.691708,9.716945 1.608372,1.950055 h 1.950048 l 1.691708,-9.725278 m 5.008455,4.866806 h 5.458466 L 40.272253,11.941722 38.66388,10 h -7.408514 l -1.691708,9.716945 1.608373,1.950055 h 7.408514 l 0.341675,-1.950055 h -5.458467 l 0.508346,-2.908417 m 0.841687,-4.866806 h 1.950048 l -0.508346,2.925084 h -1.950047 l 0.508345,-2.925084 m 16.767076,0 L 51.922537,10 h -7.408514 l -2.291723,1.941722 -0.841687,4.866806 h 5.458466 l -0.508345,2.908417 H 40.872267 L 40.530592,21.667 h 7.408514 l 2.291723,-1.950055 0.841687,-4.850139 H 45.61405 l 0.508345,-2.925084 h 5.458467 M 57.772679,10 H 55.822632 L 53.530909,11.941722 51.839201,21.667 h 1.950048 L 56.080971,19.716945 57.772679,10 m 11.700286,0 H 61.672774 L 59.381052,11.941722 57.689344,21.667 h 7.80019 L 67.781257,19.716945 69.472965,10 m -6.12515,1.550044 h 1.950048 l -1.48337,8.566912 h -1.950047 l 1.483369,-8.566912 m 11.700285,0 h 1.950048 L 75.239772,21.667 h 1.950047 L 79.481542,19.716945 81.17325,10 H 73.37306 L 71.081337,11.941722 69.389629,21.667 h 3.900095 z"
         id="path2"
         style="display:inline;fill:#242f40;fill-opacity:1;stroke-width:0.166671"
         sodipodi:nodetypes="ccccccccccccccccccccccccccccccccccccccccccccccccccccccccccccccccccccccccccccccccccccc" />
    </g>
  </g>
</svg>
