<?xml version="1.0" standalone="no"?>
<!DOCTYPE svg PUBLIC "-//W3C//DTD SVG 20010904//EN"
 "http://www.w3.org/TR/2001/REC-SVG-20010904/DTD/svg10.dtd">
<svg version="1.0" xmlns="http://www.w3.org/2000/svg"
 width="260.000000pt" height="260.000000pt" viewBox="0 0 260.000000 260.000000"
 preserveAspectRatio="xMidYMid meet">
<metadata>
Created by potrace 1.14, written by Peter Selinger 2001-2017
</metadata>
<g transform="translate(0.000000,260.000000) scale(0.100000,-0.100000)"
fill="#000000" stroke="none">
<path d="M345 2174 c-55 -47 -105 -90 -112 -97 -7 -7 -59 -284 -117 -617
l-106 -605 24 -92 c13 -50 32 -102 42 -115 168 -211 180 -223 273 -267 l89
-41 855 0 855 0 114 96 113 95 108 612 c111 632 116 681 84 744 -9 16 -63 87
-122 159 -104 126 -108 130 -193 171 l-87 42 -127 0 -127 1 -107 -90 c-58 -49
-109 -90 -113 -90 -3 0 -22 21 -41 46 -28 36 -54 54 -128 90 l-93 44 -125 0
-124 0 -107 -90 c-58 -49 -109 -90 -113 -90 -4 0 -24 22 -46 49 -32 40 -56 57
-129 90 l-90 41 -125 -1 -125 0 -100 -85z m445 -260 c52 -63 96 -123 98 -133
2 -11 -33 -228 -77 -483 -45 -255 -81 -469 -81 -476 0 -9 32 -12 119 -12 l120
0 10 53 c13 66 201 1150 201 1160 0 4 55 7 123 7 l123 0 100 -122 c67 -82 98
-128 96 -142 -2 -12 -39 -227 -83 -479 -43 -252 -79 -463 -79 -468 0 -5 53 -9
119 -9 105 0 120 2 125 18 2 9 51 284 107 610 l103 592 121 0 121 0 100 -121
c54 -67 98 -127 97 -133 -1 -6 -48 -280 -104 -608 l-104 -598 -852 0 -852 0
-92 112 c-51 62 -96 118 -100 124 -5 6 38 277 96 613 58 332 105 605 105 607
0 2 55 4 123 4 l122 0 95 -116z"/>
</g>
</svg>
